# xmcd CD database file
# Copyright (C) 1997 Ti Kan
#
# Track frame offsets:
#  150
#  17607
#  41135
#
# Disc length: 806 seconds
#
# Revision: 1
# Processed by: cddbd v1.4b41PL1 Copyright (c) Steve Scherf et al.
# Submitted via: CDWizzard Release:4.35
#
DISCID=1c032403
DTITLE=Counting Crows - Daylight Fading [CD Single 2)
DYEAR=1900
DGENRE=
TTITLE0=Daylight Fading (LP Version)
TTITLE1=Rain King (Live)
TTITLE2=Daylight Fading (Live)
EXTD=
EXTT0=
EXTT1=
EXTT2=
PLAYORDER=
